<svg id="Group_350" data-name="Group 350" xmlns="http://www.w3.org/2000/svg" width="136.553" height="68.151" viewBox="0 0 136.553 68.151">
  <g id="handi_" data-name="handi " transform="translate(3.67)" style="isolation: isolate">
    <g id="Group_342" data-name="Group 342" style="isolation: isolate">
      <path id="Path_644" data-name="Path 644" d="M212.672,387.425h5.857v11.407c2.246-1.938,4.4-2.995,6.914-2.995,4.4,0,8.016,2.862,8.016,8.544v15.458H227.6V408.785c0-4.756-.573-7.575-4.008-7.575a4.637,4.637,0,0,0-3.964,2.29c-1.189,1.85-1.1,3.964-1.1,6.386v9.953h-5.857Z" transform="translate(-212.672 -386.809)"/>
      <path id="Path_645" data-name="Path 645" d="M312.675,438.949a9.722,9.722,0,0,1-7.222,3.083c-5.946,0-11.142-5.109-11.142-12.287,0-7.311,4.933-12.331,11.01-12.331a10.043,10.043,0,0,1,7.355,3.171v-2.554h5.857v23.386h-5.857ZM300.212,429.7c0,4.008,2.642,6.959,6.3,6.959,3.611,0,6.43-2.731,6.43-7,0-4.1-2.731-6.87-6.43-6.87C302.634,422.786,300.212,425.869,300.212,429.7Z" transform="translate(-271.409 -408.385)"/>
      <path id="Path_646" data-name="Path 646" d="M398.919,420.408c2.246-1.894,4.316-2.995,6.914-2.995a7.7,7.7,0,0,1,8.015,8.015v15.987h-5.857V430.361c0-4.624-.4-7.575-3.964-7.575a4.593,4.593,0,0,0-3.964,2.246c-1.189,1.894-1.145,4.008-1.145,6.43v9.953h-5.857V418.029h5.857Z" transform="translate(-342.46 -408.385)"/>
      <path id="Path_647" data-name="Path 647" d="M493.222,417.373A9.722,9.722,0,0,1,486,420.456c-5.945,0-11.142-5.109-11.142-12.287,0-7.311,4.933-12.331,11.01-12.331a10.044,10.044,0,0,1,7.355,3.171V387.425h5.857v32.414h-5.857Zm-12.463-9.249c0,4.008,2.642,6.959,6.3,6.959,3.611,0,6.43-2.731,6.43-7,0-4.1-2.731-6.87-6.43-6.87C483.181,401.21,480.759,404.293,480.759,408.124Z" transform="translate(-401.31 -386.809)"/>
      <path id="Path_648" data-name="Path 648" d="M576.072,389.1a3.74,3.74,0,0,1-3.743,3.743,3.9,3.9,0,0,1-3.743-4.052,3.649,3.649,0,0,1,3.743-3.567A3.8,3.8,0,0,1,576.072,389.1Zm-6.65,5.769h5.857v23.386h-5.857Z" transform="translate(-468.745 -385.228)"/>
    </g>
  </g>
  <g id="caddie" transform="translate(0 34.504)" style="isolation: isolate">
    <g id="Group_344" data-name="Group 344" transform="translate(0 0.616)" style="isolation: isolate">
      <path id="Path_654" data-name="Path 654" d="M223.328,561.142c-2.511,3.259-6.034,4.889-10.614,4.889-7.971,0-13.124-5.417-13.124-12.243,0-7,5.461-12.375,13.212-12.375a12.6,12.6,0,0,1,10.79,5.329l-4.889,2.687a7.363,7.363,0,0,0-5.857-2.642c-4.492,0-7.355,3.039-7.355,7.091,0,3.964,2.774,6.782,7.09,6.782a7.436,7.436,0,0,0,6.122-2.687Z" transform="translate(-199.59 -533)"/>
      <path id="Path_655" data-name="Path 655" d="M307.387,562.948a9.721,9.721,0,0,1-7.223,3.083c-5.945,0-11.142-5.109-11.142-12.287,0-7.311,4.932-12.331,11.01-12.331a10.045,10.045,0,0,1,7.355,3.171v-2.555h5.857v23.386h-5.857ZM294.923,553.7c0,4.008,2.642,6.958,6.3,6.958,3.611,0,6.43-2.731,6.43-7,0-4.1-2.731-6.871-6.43-6.871C297.345,546.785,294.923,549.868,294.923,553.7Z" transform="translate(-263.935 -533)"/>
      <path id="Path_656" data-name="Path 656" d="M400.8,541.373a9.721,9.721,0,0,1-7.223,3.083c-5.945,0-11.142-5.109-11.142-12.288,0-7.31,4.932-12.331,11.01-12.331a10.045,10.045,0,0,1,7.355,3.171V511.425h5.857v32.414H400.8Zm-12.464-9.249c0,4.008,2.642,6.958,6.3,6.958,3.611,0,6.43-2.73,6.43-7,0-4.1-2.731-6.871-6.43-6.871C390.759,525.21,388.336,528.293,388.336,532.124Z" transform="translate(-331.424 -511.425)"/>
      <path id="Path_657" data-name="Path 657" d="M494.213,541.373a9.721,9.721,0,0,1-7.223,3.083c-5.945,0-11.142-5.109-11.142-12.288,0-7.31,4.932-12.331,11.01-12.331a10.044,10.044,0,0,1,7.355,3.171V511.425h5.858v32.414h-5.858Zm-12.463-9.249c0,4.008,2.642,6.958,6.3,6.958,3.611,0,6.43-2.73,6.43-7,0-4.1-2.731-6.871-6.43-6.871C484.172,525.21,481.75,528.293,481.75,532.124Z" transform="translate(-398.634 -511.425)"/>
    </g>
    <g id="Group_346" data-name="Group 346" transform="translate(103.627)" style="isolation: isolate">
      <path id="Path_662" data-name="Path 662" d="M576.493,513.1a3.74,3.74,0,0,1-3.744,3.743,3.9,3.9,0,0,1-3.743-4.052,3.648,3.648,0,0,1,3.743-3.567A3.8,3.8,0,0,1,576.493,513.1Zm-6.65,5.769H575.7v23.386h-5.857Z" transform="translate(-569.006 -509.228)"/>
    </g>
    <g id="Group_347" data-name="Group 347" transform="translate(103.539)" style="isolation: isolate">
      <path id="Path_663" data-name="Path 663" d="M576.178,513.1a3.74,3.74,0,0,1-3.743,3.743,3.9,3.9,0,0,1-3.744-4.052,3.649,3.649,0,0,1,3.744-3.567A3.8,3.8,0,0,1,576.178,513.1Zm-6.65,5.769h5.857v23.386h-5.857Z" transform="translate(-568.691 -509.228)"/>
    </g>
    <g id="Group_348" data-name="Group 348" transform="translate(111.698 9.028)" style="isolation: isolate">
      <path id="Path_664" data-name="Path 664" d="M620.765,560.878c-2.51,3.567-5.813,5.153-10.746,5.153-7.443,0-12.243-5.461-12.243-12.332,0-6.386,4.624-12.287,12.155-12.287,7.4,0,12.419,5.285,12.419,12.684,0,.529-.044.793-.044,1.321H603.457a6.258,6.258,0,0,0,6.562,5.417,7.57,7.57,0,0,0,5.813-2.29Zm-4.316-10.085c-.793-2.731-3.3-4.4-6.43-4.4a6.383,6.383,0,0,0-6.3,4.4Z" transform="translate(-597.776 -541.412)"/>
    </g>
    <g id="Group_349" data-name="Group 349" transform="translate(111.978 9.028)" style="isolation: isolate">
      <path id="Path_665" data-name="Path 665" d="M621.765,560.878c-2.51,3.567-5.813,5.153-10.746,5.153-7.443,0-12.243-5.461-12.243-12.332,0-6.386,4.624-12.287,12.155-12.287,7.4,0,12.419,5.285,12.419,12.684,0,.529-.044.793-.044,1.321H604.457a6.258,6.258,0,0,0,6.562,5.417,7.57,7.57,0,0,0,5.813-2.29Zm-4.316-10.085c-.793-2.731-3.3-4.4-6.43-4.4a6.383,6.383,0,0,0-6.3,4.4Z" transform="translate(-598.776 -541.412)"/>
    </g>
  </g>
</svg>
